<?xml version="1.0" encoding="UTF-8"?>
<svg version="1.1" xmlns="http://www.w3.org/2000/svg" width="1155" height="708">
<path d="M0 0 C381.15 0 762.3 0 1155 0 C1155 233.64 1155 467.28 1155 708 C773.85 708 392.7 708 0 708 C0 474.36 0 240.72 0 0 Z " fill="#FEFEFE" transform="translate(0,0)"/>
<path d="M0 0 C4.80688144 2.91576213 9.05511366 6.41632417 13.375 10 C24.5396358 19.16359956 36.05561757 27.87493744 48 36 C48.52319824 36.36270996 49.04639648 36.72541992 49.58544922 37.09912109 C59.69367984 44.10241491 70.15872678 50.20462705 81 56 C81.92425781 56.50402344 82.84851563 57.00804687 83.80078125 57.52734375 C91.2254275 61.43308203 99.10266397 64.22289557 107 67 C108.08498779 67.38937744 108.08498779 67.38937744 109.19189453 67.78662109 C122.53719876 72.52489442 135.99002906 75.07119512 150 77 C150.68908447 77.10602539 151.37816895 77.21205078 152.08813477 77.32128906 C157.16334184 78.01657339 162.20904965 78.05877603 167.32421875 78.0703125 C169.65047732 78.08555969 171.97672738 78.10182432 174.30297852 78.11816406 C175.89803604 78.12273677 177.4931599 78.11647883 179.08813477 78.09960938 C192.27730129 77.98067847 192.27730129 77.98067847 196.41210938 80.42724609 C198.8411904 83.04543008 199.83764574 85.15326008 200.5078125 88.6484375 C200.38148438 89.54820312 200.25515625 90.44796875 200.125 91.375 C199.9703125 92.51066406 199.815625 93.64632812 199.65625 94.81640625 C199.55054688 95.46883301 199.44484375 96.12125977 199.3359375 96.79345703 C198.95697226 99.28261972 198.68307819 101.77479913 198.40625 104.27734375 C194.94292365 132.56744975 183.05363274 159.04077871 172.33641052 185.22102356 C170.61616678 189.43592814 168.97911462 193.67512961 167.37890625 197.9375 C165.34429283 203.26129547 163.01725617 208.29919432 160.3125 213.3125 C159.66740479 214.51652466 159.66740479 214.51652466 159.00927734 215.74487305 C148.32905104 235.44322272 134.68284434 255.9309911 116 269 C119.2539948 281.69057973 129.10170062 289.86782096 139.8125 296.5 C165.74127921 311.73425454 196.48049585 317.35841205 225.88543701 321.54492188 C240.75509315 323.66513182 255.58869472 325.98777575 269.05493164 332.99121094 C270.92372625 333.96044143 272.81087663 334.86455575 274.71875 335.75390625 C290.51242764 343.24232363 304.15019116 353.20269576 317 365 C317.7727124 365.70479492 317.7727124 365.70479492 318.56103516 366.42382812 C368.43325517 412.46957604 375.32089792 478.50906856 382.4375 542.1875 C382.56923615 543.35933838 382.70097229 544.53117676 382.83670044 545.73852539 C383.20999355 549.08922563 383.57394544 552.44077895 383.93359375 555.79296875 C384.09708817 557.27303658 384.09708817 557.27303658 384.2638855 558.78300476 C384.41061203 560.18822136 384.41061203 560.18822136 384.56030273 561.62182617 C384.64577866 562.42319504 384.73125458 563.2245639 384.81932068 564.05021667 C385.08325063 568.35915573 385 572.68298543 385 577 C168.85 577 -47.3 577 -270 577 C-268.85245738 559.78686075 -268.85245738 559.78686075 -268.09765625 552.9609375 C-268.01571014 552.19531494 -267.93376404 551.42969238 -267.84933472 550.64086914 C-267.5897069 548.21861876 -267.32618323 545.79681191 -267.0625 543.375 C-266.69883924 540.00017931 -266.33730197 536.6251341 -265.9765625 533.25 C-265.88932419 532.43550385 -265.80208588 531.62100769 -265.71220398 530.78182983 C-265.05943179 524.65128055 -264.48203568 518.51608544 -263.9375 512.375 C-262.7004891 498.82945693 -260.67781877 485.44141453 -257.6875 472.171875 C-256.79822823 468.06909845 -256.13044149 463.94402315 -255.4609375 459.80078125 C-249.69680178 424.77632946 -231.26182018 395.36735702 -207 370 C-206.11441406 369.0615625 -205.22882813 368.123125 -204.31640625 367.15625 C-186.62024151 348.86935698 -164.05683198 335.18670711 -140 327.0625 C-139.12770752 326.76770752 -138.25541504 326.47291504 -137.35668945 326.16918945 C-132.20864765 324.50685756 -127.37234088 323.57996862 -122 323 C-121.67 322.67 -121.34 322.34 -121 322 C-118.5441426 321.59100748 -116.10042714 321.23630632 -113.6328125 320.9140625 C-112.09112369 320.70328692 -110.54945779 320.49234367 -109.0078125 320.28125 C-106.58172806 319.95400617 -104.15538047 319.62902349 -101.72851562 319.30761719 C-93.40042814 318.19880752 -85.2699308 317.11214338 -77.22680664 314.58227539 C-73.75171117 313.67359184 -70.57045229 313.79789893 -67 314 C-67 313.34 -67 312.68 -67 312 C-66.36578125 311.87625 -65.7315625 311.7525 -65.078125 311.625 C-43.8386724 306.93119832 -19.19201259 297.02337304 -6 279 C-3.90536755 275.44740151 -2.30321069 271.90963206 -1 268 C-1.86915039 267.61545654 -1.86915039 267.61545654 -2.75585938 267.22314453 C-20.88457373 257.34228521 -34.82714134 233.92472115 -44 216 C-44.56702637 214.90268555 -44.56702637 214.90268555 -45.14550781 213.78320312 C-55.42580179 193.66698366 -63.44505052 172.3099568 -70.91625977 151.01049805 C-71.91908766 148.22476459 -72.99536555 145.48633798 -74.125 142.75 C-75.42088265 139.52609682 -76.65413561 136.2978349 -77.75 133 C-78.11351562 131.9171875 -78.11351562 131.9171875 -78.484375 130.8125 C-80.42531863 120.22553475 -80.42531863 120.22553475 -77.68847656 115.95214844 C-75.8019927 113.95929567 -73.82804573 112.16699895 -71.75 110.375 C-70.26346987 108.98963012 -68.78439279 107.59622405 -67.3125 106.1953125 C-66.57773438 105.49696289 -65.84296875 104.79861328 -65.0859375 104.07910156 C-54.22020999 93.24898271 -46.49403669 79.24653792 -39 66 C-38.33871094 64.83428467 -38.33871094 64.83428467 -37.6640625 63.64501953 C-30.83645564 51.47687927 -25.38814949 38.85200031 -20.18310547 25.91845703 C-18.51405226 21.80127543 -16.79538452 17.70526623 -15.07543945 13.60913086 C-14.42471237 12.03039753 -13.7935448 10.44313166 -13.19995117 8.84204102 C-10.75484868 2.40733635 -7.10604247 -1.1601702 0 0 Z " fill="#508990" transform="translate(275,131)"/>
<path d="M0 0 C0.95359406 0.00087616 1.90718811 0.00175232 2.88967896 0.00265503 C30.81266934 0.08730122 62.8149365 3.1577102 84.1875 23.375 C84.5175 24.035 84.8475 24.695 85.1875 25.375 C87.76215738 26.31504932 90.32745015 27.17082661 92.9375 28 C112.37213534 34.56107421 126.67020031 47.0289543 136.375 65.0625 C142.3606183 77.83046805 143.82430348 89.69065778 143.65405273 103.60766602 C143.62514465 106.17465526 143.63348587 108.73955821 143.64648438 111.30664062 C143.61849463 132.86467831 138.58237966 153.07392009 132.20581055 173.55029297 C130.21926946 179.86100825 130.21926946 179.86100825 129.1875 186.375 C130.98882223 189.57712693 130.98882223 189.57712693 133.1875 192.375 C136.84478474 203.34685423 135.35221575 218.69649778 130.8828125 229.21875 C126.9727413 236.49832956 122.42090406 243.86641036 116.1875 249.375 C115.5275 249.375 114.8675 249.375 114.1875 249.375 C114.23132813 250.39335937 114.27515625 251.41171875 114.3203125 252.4609375 C114.27551372 286.43334872 99.02925333 312.60524872 75.74609375 336.08203125 C74.1875 337.375 74.1875 337.375 72.1875 337.375 C74.65563672 345.43860194 78.0402665 351.71665207 83.1875 358.375 C83.909375 359.385625 84.63125 360.39625 85.375 361.4375 C101.31419921 379.88516335 126.96926336 386.51526434 150.125 388.6875 C159.5804514 389.60220133 168.5411626 391.16548091 177.6875 393.75 C178.68257568 394.03012939 179.67765137 394.31025879 180.70288086 394.59887695 C187.48932296 396.6226019 193.82269199 399.28262413 200.1875 402.375 C200.93435059 402.73706543 201.68120117 403.09913086 202.45068359 403.47216797 C216.31182592 410.33370634 227.91992443 418.72432873 239.1875 429.375 C239.99832031 430.12136719 240.80914063 430.86773437 241.64453125 431.63671875 C260.37960541 449.4866713 272.88074031 473.7823113 280.0625 498.4375 C280.25360352 499.07155762 280.44470703 499.70561523 280.64160156 500.35888672 C284.52704591 514.71951722 284.71282792 530.52031205 285.99243164 545.28759766 C286.24915668 548.24030067 286.51211416 551.19240607 286.77539062 554.14453125 C287.6731221 564.36588938 288.4368649 574.57142911 288.8427887 584.82540894 C289.03444222 589.40501528 289.51706522 593.83485671 290.1875 598.375 C290.25958188 599.98699883 290.29628433 601.60127249 290.28515625 603.21484375 C290.28193359 604.04951172 290.27871094 604.88417969 290.27539062 605.74414062 C290.26701172 606.59169922 290.25863281 607.43925781 290.25 608.3125 C290.24548828 609.18712891 290.24097656 610.06175781 290.23632812 610.96289062 C290.22464834 613.10029047 290.20671689 615.23765463 290.1875 617.375 C283.48486585 618.14831844 276.93384411 618.47872708 270.1875 618.375 C268.64713794 604.55083694 267.48591096 590.72871177 266.51025391 576.85449219 C265.80498908 566.88803751 264.96909207 556.95859363 263.87677002 547.02668762 C263.28346904 541.54771489 262.89558111 536.08142203 262.60668945 530.57739258 C261.53583872 511.49523424 257.09126065 494.2880796 248.1875 477.375 C247.46433594 475.9209375 247.46433594 475.9209375 246.7265625 474.4375 C231.96140288 445.72293544 205.62808403 425.5872289 175.27001953 415.75390625 C169.29226704 413.89544319 163.37983047 412.31548929 157.1875 411.375 C157.39246094 412.20902344 157.59742188 413.04304688 157.80859375 413.90234375 C159.18633614 419.65721984 160.48389799 425.26653351 160.87890625 431.1796875 C161.14833036 433.55989137 161.14833036 433.55989137 162.19458008 436.46362305 C163.42390633 440.71787425 163.44157771 444.75059985 163.3828125 449.15234375 C163.37856766 450.36936729 163.37856766 450.36936729 163.37423706 451.61097717 C163.36312663 454.17830753 163.33803971 456.74527678 163.3125 459.3125 C163.30245836 461.06314597 163.29333459 462.81379746 163.28515625 464.56445312 C163.26321734 468.83477254 163.2287516 473.10482525 163.1875 477.375 C164.81751953 477.58576172 164.81751953 477.58576172 166.48046875 477.80078125 C177.52379856 479.51139187 188.30889949 486.71459334 195.1875 495.375 C204.24776881 508.83265202 207.79451252 521.70281552 207.9375 537.9375 C207.96154919 539.46111264 207.98639719 540.98471284 208.01196289 542.50830078 C208.0635771 545.88880735 208.09945199 549.2691219 208.12744141 552.64990234 C208.17433071 557.87479209 208.27720814 563.09773319 208.38369751 568.32170105 C208.47136789 572.97686745 208.52922342 577.63211461 208.58044434 582.28781128 C208.60987458 584.57468253 208.64899686 586.86145199 208.69836426 589.14797974 C209.02799791 605.23796444 208.49051517 617.180636 197.75 629.9375 C190.65779698 637.1841396 182.49757827 643.07914186 172.00683594 643.45263672 C169.46211364 643.47331322 166.91967782 643.46216876 164.375 643.4375 C163.49134766 643.43298828 162.60769531 643.42847656 161.69726562 643.42382812 C159.52731441 643.41209866 157.35739828 643.39416495 155.1875 643.375 C155.08440707 638.22679677 155.16047778 633.38342223 156.1875 628.3125 C156.373125 627.37277344 156.55875 626.43304687 156.75 625.46484375 C156.894375 624.77519531 157.03875 624.08554687 157.1875 623.375 C158.08210938 623.37242187 158.97671875 623.36984375 159.8984375 623.3671875 C167.9983128 623.10812965 175.30936427 622.44241381 181.1875 616.375 C188.52932089 607.3791807 186.77528174 595.32536961 186.5625 584.4375 C186.53772275 582.33701443 186.51462668 580.23650839 186.49316406 578.13598633 C186.43255788 572.87438446 186.33935608 567.61387441 186.2388916 562.35290527 C186.17556149 558.68321845 186.14116291 555.01365859 186.1098938 551.34358215 C186.07924071 548.15493822 186.03009188 544.96682236 185.97393799 541.77853394 C185.9499671 540.32070632 185.93122556 538.86278173 185.91815186 537.40481567 C185.79680075 525.95685967 183.77902918 517.6940585 177.1875 508.375 C176.8575 507.385 176.5275 506.395 176.1875 505.375 C174.47230253 504.34848627 174.47230253 504.34848627 172.1875 503.375 C171.18332031 502.71886719 170.17914062 502.06273437 169.14453125 501.38671875 C164.74459523 498.86144362 160.49162164 498.48737162 155.5 498.125 C154.61731445 498.05055664 153.73462891 497.97611328 152.82519531 497.89941406 C134.282919 496.21871342 134.282919 496.21871342 118.2890625 504.3671875 C112.14110597 510.24088574 109.7667565 516.11733086 107.80859375 524.25390625 C107.59510788 525.12517151 107.38162201 525.99643677 107.16166687 526.894104 C104.63166336 537.40719162 102.56507539 548.01288007 100.5 558.625 C99.91393859 561.61848839 99.32637486 564.61166858 98.73661804 567.60443115 C98.37470704 569.44270864 98.01501559 571.28142515 97.65803528 573.1206665 C96.88984501 577.03796723 96.07462577 580.92231263 95.08642578 584.79052734 C92.89659429 593.5224953 93.22870506 601.49097262 97.76953125 609.3515625 C101.22185988 614.27802595 105.59711481 616.41836518 111.1875 618.375 C114.1575 618.705 117.1275 619.035 120.1875 619.375 C119.5275 625.975 118.8675 632.575 118.1875 639.375 C106.45827984 639.77945587 98.79955613 638.08009875 89.1875 631.375 C88.341875 630.818125 87.49625 630.26125 86.625 629.6875 C80.25976383 623.64868619 76.48841658 616.74736742 74.1875 608.375 C73.85234375 607.47692627 73.5171875 606.57885254 73.171875 605.65356445 C69.51828619 593.48490272 73.29033683 579.97618794 75.875 567.9375 C76.24504415 566.16205647 76.6137664 564.38633694 76.98120117 562.61035156 C77.70573366 559.11952584 78.43820601 555.63053829 79.17871094 552.14306641 C80.04705693 548.05090205 80.89274131 543.95480601 81.7265625 539.85546875 C82.69512562 535.09838892 83.6873633 530.34731948 84.70996094 525.6015625 C85.13228597 523.63243966 85.53991076 521.66017651 85.9453125 519.6875 C89.53995856 503.49093386 99.30170122 490.49085379 112.9609375 481.1640625 C114.65289709 480.14582438 116.42125288 479.25812356 118.1875 478.375 C119.8890625 477.50875 119.8890625 477.50875 121.625 476.625 C125.83891499 475.0711091 130.04402668 475.23288813 134.47265625 475.296875 C135.21519653 475.30251465 135.95773682 475.3081543 136.72277832 475.31396484 C138.54440692 475.32861405 140.36597019 475.35103075 142.1875 475.375 C141.88133248 450.21016503 141.88133248 450.21016503 138.1875 425.375 C137.825356 423.68232692 137.4633845 421.98961694 137.1015625 420.296875 C136.16665925 415.98073145 135.18906456 411.67613512 134.1875 407.375 C133.54683594 407.32601563 132.90617187 407.27703125 132.24609375 407.2265625 C126.97593079 406.77101935 122.27700567 405.87191343 117.1875 404.375 C114.8023307 403.83738651 114.8023307 403.83738651 112.1875 404.375 C110.0105981 406.15448384 108.2092901 407.83482666 106.3125 409.875 C105.78366211 410.42381836 105.25482422 410.97263672 104.70996094 411.53808594 C101.30307967 415.0995406 98.02280515 418.76265123 94.828125 422.515625 C92.47267327 425.18513696 89.93521311 427.6530701 87.375 430.125 C84.8254713 432.74737237 82.45026674 435.49578356 80.05224609 438.25634766 C77.1114905 441.59752035 74.05724994 444.82819394 71 448.0625 C67.18404877 452.11064759 63.37167073 456.16027512 59.6171875 460.265625 C59.06828857 460.86544189 58.51938965 461.46525879 57.95385742 462.08325195 C56.92293271 463.21237515 55.8943398 464.34363302 54.8684082 465.47729492 C51.64724494 469.00215977 49.83031055 470.54274839 45.0625 470.875 C39.0500999 470.86528691 36.21791052 467.40541052 32.1875 463.375 C31.5275 463.045 30.8675 462.715 30.1875 462.375 C29.50960976 464.72643176 28.84509253 467.08038624 28.1875 469.4375 C27.90132812 470.42266602 27.90132812 470.42266602 27.609375 471.42773438 C27.42890625 472.08193359 27.2484375 472.73613281 27.0625 473.41015625 C26.89492188 474.0019165 26.72734375 474.59367676 26.5546875 475.20336914 C25.45452111 481.71000481 26.68122248 487.77947561 28.00756836 494.13061523 C28.20103348 495.08439056 28.3944986 496.03816589 28.59382629 497.02084351 C29.23205884 500.15974302 29.87976763 503.29660985 30.52734375 506.43359375 C30.9740339 508.62388979 31.42003282 510.81432689 31.8653717 513.00489807 C33.03793184 518.76512306 34.21812263 524.52375559 35.40045166 530.28198242 C37.2909686 539.49393271 39.17146962 548.70792484 41.04898262 557.92253304 C41.70464785 561.13365925 42.36451728 564.34390033 43.02488708 567.55406189 C43.42939852 569.53267849 43.83378827 571.51131997 44.23803711 573.48999023 C44.4214566 574.37595383 44.6048761 575.26191742 44.79385376 576.17472839 C45.82206326 581.22846675 46.71658386 586.23603405 47.1875 591.375 C45.03345008 593.52904992 40.78334581 593.43022322 37.8125 593.9375 C37.03132813 594.07607422 36.25015625 594.21464844 35.4453125 594.35742188 C32.29339248 594.90522989 29.39630083 595.375 26.1875 595.375 C22.23770933 576.29782293 18.29895988 557.21839939 14.37344074 538.1362133 C13.5457364 534.1133736 12.71604009 530.09095102 11.88476562 526.06884766 C11.02129611 521.88904873 10.16399976 517.70805138 9.31375122 513.52554321 C9.02405569 512.10559785 8.73200781 510.68613013 8.43746948 509.2671814 C8.03913483 507.34610714 7.65015414 505.42310029 7.26171875 503.5 C7.05119873 502.47132813 6.84067871 501.44265625 6.6237793 500.3828125 C6.13505882 497.0134581 6.11427055 493.77497665 6.1875 490.375 C2.2275 490.375 -1.7325 490.375 -5.8125 490.375 C-5.92352051 491.91091797 -6.03454102 493.44683594 -6.14892578 495.02929688 C-6.76463397 501.76247218 -8.05866343 508.29178426 -9.4296875 514.90625 C-9.82393641 516.85000599 -10.21818056 518.79376297 -10.61216927 520.73757172 C-11.16092043 523.43795929 -11.7148805 526.13726638 -12.26904297 528.83654785 C-17.19343333 552.55659233 -17.19343333 552.55659233 -21.20678711 576.44262695 C-22.18577877 582.79837811 -23.48646839 589.08340321 -24.8125 595.375 C-31.95087939 594.85929959 -38.82251385 593.9039789 -45.8125 592.375 C-45.03048473 583.4126934 -43.25632961 574.63649845 -41.5625 565.8125 C-41.24354837 564.13932722 -40.92461954 562.4661501 -40.60571289 560.79296875 C-38.34873957 548.99192182 -35.96935532 537.22048498 -33.47021484 525.46826172 C-32.43341887 520.59216482 -31.40097159 515.71519315 -30.37915039 510.8359375 C-29.84955275 508.30780144 -29.31640277 505.78040591 -28.77905273 503.25390625 C-27.59660988 497.60152187 -26.52762148 492.02706504 -26.01245117 486.27246094 C-25.8125 484.375 -25.8125 484.375 -25.12890625 481.26171875 C-24.7160164 477.49473606 -25.60501404 474.78437508 -26.75 471.1875 C-28.8125 464.62245763 -28.8125 464.62245763 -28.8125 461.375 C-29.62654297 462.09816406 -29.62654297 462.09816406 -30.45703125 462.8359375 C-31.53017578 463.78339844 -31.53017578 463.78339844 -32.625 464.75 C-33.33269531 465.37648438 -34.04039062 466.00296875 -34.76953125 466.6484375 C-37.9594427 469.34430913 -40.02838147 470.69184298 -44.1875 470.8125 C-44.93773437 470.85246094 -45.68796875 470.89242188 -46.4609375 470.93359375 C-49.97625087 470.09856084 -51.39702611 468.02630419 -53.8125 465.375 C-54.9081349 464.27919732 -56.01007187 463.18967091 -57.1171875 462.10546875 C-68.23653552 451.08497311 -68.23653552 451.08497311 -73.30859375 445.09765625 C-75.43846759 442.65798258 -77.75307869 440.42443165 -80.0625 438.15625 C-82.51884849 435.65603815 -84.77559368 432.99819484 -87.0625 430.34375 C-88.75048286 428.44476929 -90.50019734 426.65494012 -92.3125 424.875 C-94.70882761 422.5159486 -96.98064188 420.09987835 -99.1875 417.5625 C-99.76371094 416.90765625 -100.33992187 416.2528125 -100.93359375 415.578125 C-102.31863321 413.95408704 -103.65878549 412.29150972 -104.97265625 410.609375 C-108.64318422 405.67369932 -108.64318422 405.67369932 -113.84765625 402.89453125 C-115.81459333 403.06358199 -115.81459333 403.06358199 -117.63842773 403.69702148 C-119.92983954 404.41159202 -122.21725874 404.94441458 -124.5625 405.453125 C-125.36171875 405.6274707 -126.1609375 405.80181641 -126.984375 405.98144531 C-127.88929688 406.17625488 -127.88929688 406.17625488 -128.8125 406.375 C-128.86784912 407.01002441 -128.92319824 407.64504883 -128.98022461 408.29931641 C-129.23440369 411.19976151 -129.49217067 414.09987719 -129.75 417 C-129.83701172 417.99902344 -129.92402344 418.99804688 -130.01367188 420.02734375 C-130.10068359 421.00058594 -130.18769531 421.97382813 -130.27734375 422.9765625 C-130.355896 423.86682129 -130.43444824 424.75708008 -130.51538086 425.67431641 C-130.8125 428.375 -130.8125 428.375 -131.33325195 431.20458984 C-131.90373812 434.97857523 -131.9927907 438.69252548 -132.015625 442.5 C-132.02250336 443.27603073 -132.02938171 444.05206146 -132.03646851 444.85160828 C-132.05363257 447.35945333 -132.05993034 449.86709922 -132.0625 452.375 C-132.06417175 453.22792633 -132.06584351 454.08085266 -132.06756592 454.95962524 C-132.06913698 468.31535529 -131.30797093 481.22759419 -128.8125 494.375 C-128.59980469 495.56996094 -128.38710938 496.76492188 -128.16796875 497.99609375 C-127.84469364 499.78457258 -127.50835636 501.57088999 -127.14453125 503.3515625 C-126.8125 505.375 -126.8125 505.375 -126.8125 509.375 C-126.13445312 509.34019531 -125.45640625 509.30539062 -124.7578125 509.26953125 C-112.55748628 508.91467412 -101.83449789 512.61166211 -92.328125 520.4140625 C-82.38074653 529.860734 -76.93598476 540.50754403 -76.35888672 554.19360352 C-76.09594738 568.33005257 -80.13507442 579.80883126 -89.8125 590.375 C-102.06927842 601.27399159 -114.70914542 604.2183025 -130.68066406 603.55419922 C-135.24690676 603.17036709 -138.86551752 601.5947441 -142.8125 599.375 C-143.63878906 598.9625 -144.46507812 598.55 -145.31640625 598.125 C-156.87667655 591.91245779 -163.23020528 582.45261966 -167.8125 570.375 C-170.9095892 559.72858444 -170.2691385 545.64529074 -165.296875 535.8125 C-160.71722595 528.29223419 -155.20160159 521.30106772 -147.8125 516.375 C-148.70019915 508.6631136 -150.02420934 501.04123968 -151.3515625 493.39453125 C-153.49661351 480.79635855 -154.04670375 468.5687278 -154.0625 455.8125 C-154.06483643 454.95437714 -154.06717285 454.09625427 -154.06958008 453.21212769 C-154.0844164 438.74552966 -153.16190118 424.67343889 -150.8125 410.375 C-186.16966282 414.12924708 -213.60395688 432.29320282 -237.8125 457.375 C-241.49043249 455.80974036 -244.02462508 453.52103892 -246.9375 450.8125 C-250.12757509 447.73780814 -250.12757509 447.73780814 -253.8125 445.375 C-243.09112398 422.14535197 -210.53479909 405.11640212 -187.8125 396.375 C-183.84202962 394.93249098 -179.86451841 393.56996521 -175.8125 392.375 C-174.70519531 392.04628906 -173.59789062 391.71757812 -172.45703125 391.37890625 C-166.43391796 389.89942042 -160.23117148 389.45771695 -154.07666016 388.80187988 C-127.86105274 385.95153579 -99.95365465 379.28505926 -82.453125 357.71875 C-80.26265818 354.58951169 -78.21686107 351.39902961 -76.25 348.125 C-75.87834717 347.52204102 -75.50669434 346.91908203 -75.1237793 346.29785156 C-73.12333997 342.90487281 -73.12333997 342.90487281 -73.3984375 339.125 C-74.82627191 337.35795631 -76.20830315 336.01899755 -78 334.625 C-82.09144483 331.24364063 -85.42535614 327.44833249 -88.8125 323.375 C-89.451875 322.63507813 -90.09125 321.89515625 -90.75 321.1328125 C-104.01438444 305.32954198 -111.2981205 287.2229486 -113.4140625 266.7734375 C-113.52282715 265.79874512 -113.6315918 264.82405273 -113.74365234 263.81982422 C-113.95154234 261.89978657 -114.13287199 259.97663088 -114.28369141 258.05126953 C-115.05696282 250.94050667 -117.46662756 247.93266922 -122.8125 243.375 C-133.63796393 230.275478 -136.76412487 214.91358391 -135.8125 198.375 C-134.86881964 193.76689851 -133.41571472 190.27982208 -130.8125 186.375 C-130.71469194 184.09656883 -130.71469194 184.09656883 -131.0625 181.5625 C-131.17078125 180.59054688 -131.2790625 179.61859375 -131.390625 178.6171875 C-131.98937368 174.01569305 -132.62859833 169.42165261 -133.3125 164.83203125 C-134.30740868 157.95317047 -134.97060206 151.35275563 -134.98046875 144.40625 C-134.98546135 143.14838684 -134.98546135 143.14838684 -134.99055481 141.8651123 C-134.99559041 140.09692935 -134.99796418 138.32873699 -134.99780273 136.56054688 C-134.99997137 133.90998839 -135.01811391 131.25985912 -135.03710938 128.609375 C-135.08559531 114.48063879 -134.28676368 100.70025256 -130.25 87.0625 C-129.99387939 86.18787109 -129.73775879 85.31324219 -129.47387695 84.41210938 C-120.12336328 53.96883135 -100.85008618 30.29533152 -72.8359375 15.40625 C-60.42971818 9.03982247 -47.44084789 5.15619201 -33.8125 2.375 C-32.4368689 2.09245361 -32.4368689 2.09245361 -31.03344727 1.80419922 C-20.73261593 -0.04880782 -10.43138934 -0.02332636 0 0 Z " fill="#508990" transform="translate(864.8125,50.625)"/>
<path d="M0 0 C-0.66635754 10.40474473 -1.93863337 20.69290731 -3.34594727 31.0168457 C-3.6205585 33.04076149 -3.89048786 35.0652644 -4.16015625 37.08984375 C-4.32136963 38.27441162 -4.48258301 39.45897949 -4.64868164 40.67944336 C-5.31170108 46.78984226 -5.31170108 46.78984226 -3.9765625 52.6796875 C-1.28677582 55.83726316 1.7982164 56.85906906 5.625 58.125 C6.33978516 58.37652832 7.05457031 58.62805664 7.79101562 58.88720703 C9.85515444 59.6090942 11.92582581 60.30756892 14 61 C15.00804687 61.34546875 16.01609375 61.6909375 17.0546875 62.046875 C19.03043361 62.71597752 21.01409697 63.36167403 23 64 C22.44297853 67.72841729 21.49257498 70.17375783 19.33984375 73.2578125 C18.79682617 74.04357666 18.25380859 74.82934082 17.69433594 75.63891602 C17.11458008 76.45932373 16.53482422 77.27973145 15.9375 78.125 C15.35129883 78.96796631 14.76509766 79.81093262 14.16113281 80.67944336 C10.31215838 86.19605957 6.40102127 91.66585161 2.390625 97.06640625 C-0.11544042 100.5509635 -0.63821903 102.69202156 0 107 C4.77244316 114.31261451 12.30360768 119.92061538 18.83227539 125.59155273 C31.97249664 137.03801079 44.25289197 149.13156083 56 162 C56.86496094 162.9384375 57.72992188 163.876875 58.62109375 164.84375 C63.08557737 169.73379098 67.34229176 174.76433504 71.50390625 179.9140625 C73.31198156 182.14939817 75.13112763 184.37188205 76.96484375 186.5859375 C83.61502931 194.64670653 89.96597499 202.8676957 96.06713867 211.35351562 C98.81378875 215.14897565 101.62308737 218.88270552 104.6015625 222.5 C105.13346191 223.1496875 105.66536133 223.799375 106.21337891 224.46875 C108.49653486 226.42556254 110.01797228 226.74911767 113 227 C116.00702649 226.75080359 117.51058364 226.42423599 119.80200195 224.43798828 C120.33784912 223.78040527 120.87369629 223.12282227 121.42578125 222.4453125 C122.02213379 221.72118164 122.61848633 220.99705078 123.23291016 220.25097656 C125.92534045 216.82127122 128.57831718 213.36847166 131.1875 209.875 C136.70823165 202.5728718 142.49804044 195.58397306 148.52490234 188.69726562 C150.00656266 186.99244893 151.46883084 185.27283829 152.92578125 183.546875 C158.77480723 176.62759758 164.78766353 169.90452864 171.01708984 163.32446289 C173.82263736 160.35745392 176.56772745 157.36101971 179.22924805 154.26367188 C182.88084551 150.08048899 186.72498412 146.13021418 190.65625 142.2109375 C191.36221313 141.50401764 192.06817627 140.79709778 192.79553223 140.0687561 C194.27668582 138.58692706 195.75908268 137.10633975 197.24267578 135.62695312 C199.49757276 133.37742146 201.7470693 131.12258868 203.99609375 128.8671875 C205.44499194 127.41895005 206.89420026 125.9710228 208.34375 124.5234375 C209.00749634 123.85766693 209.67124268 123.19189636 210.35510254 122.50595093 C213.94889409 118.92992738 217.61116905 115.54440787 221.54260254 112.3409729 C224.34678774 109.76080074 224.99349894 108.05736579 225.421875 104.27734375 C225.28223206 99.33916403 223.1634344 96.40266809 220.25 92.5625 C219.76354004 91.88872314 219.27708008 91.21494629 218.77587891 90.52075195 C217.73921662 89.08622389 216.69488001 87.65721532 215.64355469 86.23339844 C213.38724109 83.16733237 211.18265791 80.06589412 208.98339844 76.95874023 C207.92719362 75.46725976 206.86550292 73.97964608 205.79785156 72.49633789 C205.31541992 71.82078857 204.83298828 71.14523926 204.3359375 70.44921875 C203.69470947 69.55722778 203.69470947 69.55722778 203.04052734 68.6472168 C202 67 202 67 201 64 C201.6705542 63.8141333 202.3411084 63.6282666 203.03198242 63.43676758 C206.08889473 62.57903473 209.13796282 61.69607916 212.1875 60.8125 C213.24259766 60.52052734 214.29769531 60.22855469 215.38476562 59.92773438 C221.23397492 58.21172029 225.24724007 56.90992787 229 52 C232.62879434 44.74241132 229.13416577 33.36322988 228.0625 25.5625 C227.69674677 22.85579768 227.33421902 20.14867122 226.97265625 17.44140625 C226.80266113 16.1692627 226.63266602 14.89711914 226.45751953 13.58642578 C225.88075076 9.06522344 225.40470657 4.53960509 225 0 C232.01170218 0.84015958 238.85702087 2.42785069 245.75 3.9375 C248.18191828 4.46915873 250.61420623 4.99912957 253.046875 5.52734375 C254.80559937 5.91237061 254.80559937 5.91237061 256.59985352 6.30517578 C259.7508647 6.94908889 262.89485277 7.44731614 266.07421875 7.92578125 C275.54219622 9.62251093 280.7624767 18.35971803 286.125 25.75 C287.78725343 28.1428471 289.3994396 30.56559059 291 33 C291.70125 34.04414063 292.4025 35.08828125 293.125 36.1640625 C304.96333218 55.17013487 309.55020147 76.90024107 309 99 C308.46632813 99.14695312 307.93265625 99.29390625 307.3828125 99.4453125 C295.08274565 103.14810079 285.39781399 109.97121774 279.140625 121.39453125 C273.28082132 133.8256862 271.24028977 147.72711677 276 161 C280.75401816 171.46682989 286.94690253 179.32486433 297 185 C297.85851562 185.50660156 298.71703125 186.01320313 299.6015625 186.53515625 C309.58758257 191.58442555 321.88673009 191.80314898 332.63671875 189.078125 C335.59307391 187.91223846 338.25658436 186.59962235 341 185 C341.81726563 184.54238281 342.63453125 184.08476563 343.4765625 183.61328125 C352.98695031 177.80844588 359.85236449 169.01560934 363.11328125 158.36328125 C366.18111214 145.28503442 365.16135333 130.99893987 358.4921875 119.37109375 C351.61930226 108.64619608 341.87649379 102.84684169 330 99 C329.96559814 98.38294189 329.93119629 97.76588379 329.89575195 97.13012695 C328.22110012 69.03492158 321.71214491 45.07441894 307 21 C305.99966795 19.33353261 304.99954768 17.66693798 304 16 C342.17855392 26.90815826 372.20824895 58.24861181 391 92 C391.33016113 92.59167969 391.66032227 93.18335938 392.00048828 93.79296875 C406.0562439 119.37712665 408.57060734 151.51179125 412.4375 180.125 C412.59416641 181.27742188 412.59416641 181.27742188 412.7539978 182.453125 C414.53108825 195.60974134 415.9981663 208.78960976 417.3125 222 C417.39958221 222.87142639 417.48666443 223.74285278 417.5763855 224.64068604 C417.82176116 227.11426274 418.06255044 229.5882258 418.30078125 232.0625 C418.37239471 232.79419403 418.44400818 233.52588806 418.51779175 234.27975464 C418.85703228 237.8889991 419 241.36411887 419 245 C216.71 245 14.42 245 -194 245 C-194 231.18532986 -194 231.18532986 -193.265625 224.53515625 C-193.18786835 223.78788773 -193.11011169 223.0406192 -193.02999878 222.27070618 C-192.77726538 219.86712919 -192.51449253 217.46480945 -192.25 215.0625 C-192.11461823 213.81004486 -192.11461823 213.81004486 -191.97650146 212.5322876 C-190.2930755 196.97530105 -188.35922233 181.47060045 -186 166 C-185.89300781 165.29276794 -185.78601563 164.58553589 -185.67578125 163.85687256 C-178.29222979 115.14373264 -163.63105644 69.4736521 -122.19775391 38.65966797 C-117.55132932 35.30771203 -112.79998319 32.12681075 -108 29 C-107.01257813 28.34902344 -106.02515625 27.69804687 -105.0078125 27.02734375 C-98.80912173 23.17291705 -92.30569951 20.31002088 -85.5625 17.5625 C-84.2645752 17.03039917 -84.2645752 17.03039917 -82.94042969 16.48754883 C-82.11575195 16.16294678 -81.29107422 15.83834473 -80.44140625 15.50390625 C-79.70607666 15.21330322 -78.97074707 14.9227002 -78.21313477 14.62329102 C-75.72447001 13.92240176 -73.57310239 13.89117385 -71 14 C-71.63615234 14.98226563 -71.63615234 14.98226563 -72.28515625 15.984375 C-74.20896839 18.97791126 -76.1037398 21.98894621 -78 25 C-78.598125 25.91394531 -79.19625 26.82789063 -79.8125 27.76953125 C-89.23167149 42.80236075 -92.28878415 59.71539053 -95 77 C-95.87140625 77.07476563 -96.7428125 77.14953125 -97.640625 77.2265625 C-112.53301976 78.87052816 -123.50758284 84.85378635 -133.03515625 96.484375 C-141.25579876 107.72448918 -143.95437867 118.8719898 -145 132.5625 C-145.08121094 133.55266113 -145.16242188 134.54282227 -145.24609375 135.56298828 C-145.50329109 138.70821495 -145.75223151 141.85401771 -146 145 C-146.32935734 149.1253293 -146.66276486 153.2503073 -147 157.375 C-147.0812764 158.37324295 -147.1625528 159.3714859 -147.24629211 160.39997864 C-147.8617016 167.77786245 -148.66333246 175.11643051 -149.60229492 182.4597168 C-151.15566323 196.28746008 -149.80467427 210.27226561 -141.0234375 221.53515625 C-136.54567622 226.75921107 -132.17941596 230.9353099 -126 234 C-124.865625 234.5775 -123.73125 235.155 -122.5625 235.75 C-115.86470903 238.14496768 -107.96909023 237.72776991 -101 238 C-101 231.07 -101 224.14 -101 217 C-103.145 217.103125 -105.29 217.20625 -107.5 217.3125 C-114.05853869 217.2992638 -118.23162775 216.59518682 -123 212 C-129.63726785 204.66317436 -130.29039359 197.56373728 -130 188 C-129.6890152 183.16797167 -129.24935177 178.35149973 -128.79296875 173.53125 C-128.66546937 172.1608633 -128.53813819 170.79046095 -128.41096497 169.42004395 C-128.14470375 166.56564508 -127.87431758 163.71167207 -127.60131836 160.85791016 C-127.2550427 157.23152435 -126.9224148 153.60402965 -126.59330273 149.97605133 C-126.33490585 147.1509753 -126.0675214 144.32680028 -125.79772377 141.50279236 C-125.6108384 139.52556048 -125.43263242 137.54751426 -125.25468445 135.56945801 C-124.10681427 123.84190877 -122.65060068 113.53459646 -114 105 C-105.61252853 98.38197849 -98.97065419 97.76127135 -88.54125977 97.70483398 C-87.06427404 97.69334686 -85.58732875 97.67294672 -84.1105957 97.64331055 C-68.96139263 97.33947779 -68.96139263 97.33947779 -62 102 C-61.23429688 102.495 -60.46859375 102.99 -59.6796875 103.5 C-48.16552397 113.07021384 -46.59576417 126.54322187 -44.8125 140.5 C-44.56429286 142.32805846 -44.31476785 144.15593845 -44.06396484 145.98364258 C-43.34107919 151.31820204 -42.66333635 156.65774758 -42 162 C-41.90591858 162.75037537 -41.81183716 163.50075073 -41.71490479 164.27386475 C-41.15652845 168.74202358 -40.62785531 173.21268078 -40.125 177.6875 C-40.00487549 178.74582031 -39.88475098 179.80414062 -39.76098633 180.89453125 C-37.53920013 202.39413602 -37.53920013 202.39413602 -42 210 C-44.58914147 212.83861604 -47.32804807 214.77601602 -51 216 C-53.57497068 216.07035439 -56.11449929 216.0934934 -58.6875 216.0625 C-61.100625 216.041875 -63.51375 216.02125 -66 216 C-66 222.93 -66 229.86 -66 237 C-52.07661044 236.66040513 -38.39448525 235.49324521 -28 225 C-18.31237703 212.76969384 -17.86055368 198.30793033 -19.35925293 183.43475342 C-20.43819689 174.32118492 -21.73896904 165.23890318 -23.05548096 156.15710449 C-23.48361227 153.18300265 -23.89968837 150.20726911 -24.31537437 147.23140621 C-24.81740677 143.64186668 -25.32642168 140.05332735 -25.8359375 136.46484375 C-25.9302644 135.79635847 -26.02459129 135.12787319 -26.12177658 134.43913078 C-29.07359919 113.61984167 -33.62523487 98.26746521 -51 85 C-58.36542085 80.20759868 -65.30007683 77.89999205 -74 77 C-72.95636112 51.90048487 -61.10824053 30.91690892 -43 14 C-42.13375 13.0925 -41.2675 12.185 -40.375 11.25 C-34.96666266 6.126312 -29.70631695 5.1371873 -22.5625 3.9375 C-15.54928399 2.77426062 -15.54928399 2.77426062 -8.71484375 0.87890625 C-5.67140699 -0.10637903 -3.17957421 -0.06171001 0 0 Z " fill="#FDFEFE" transform="translate(220,463)"/>
<path d="M0 0 C4.56801043 0.68570576 7.07186996 3.57652973 10.1875 6.75 C10.76121338 7.33201172 11.33492676 7.91402344 11.92602539 8.51367188 C23.67579769 20.72515386 31.38561948 34.70629843 34.62036133 51.35253906 C35.79891721 57.1888077 37.1937144 58.7958096 42 62 C42.33667867 64.62366712 42.47437262 66.9391913 42.4375 69.5625 C42.43137695 70.28614746 42.42525391 71.00979492 42.41894531 71.75537109 C42.2496085 77.56622879 41.0978956 82.02621606 38 87 C37.401875 88.03125 36.80375 89.0625 36.1875 90.125 C33.94763244 93.06882594 31.54243857 95.45102036 28.78125 97.8984375 C22.52812513 105.27602781 22.04847791 113.26433212 21.0625 122.5625 C18.41111239 144.8919507 11.73875283 160.83152013 -4 177 C-4.73476563 177.79664063 -5.46953125 178.59328125 -6.2265625 179.4140625 C-20.00286784 193.92756144 -40.33777972 209.86734686 -61.00756836 211.19287109 C-89.87800202 211.89088876 -89.87800202 211.89088876 -101 206 C-101.89203125 205.58878906 -102.7840625 205.17757812 -103.703125 204.75390625 C-125.29405529 194.11626955 -145.44129161 174.86205905 -157 154 C-157.42522949 153.27256592 -157.85045898 152.54513184 -158.28857422 151.7956543 C-161.92435208 145.19565435 -162.98651873 139.26316453 -163.625 131.8125 C-163.85836941 129.60117857 -164.09533824 127.39023398 -164.3359375 125.1796875 C-164.44776367 124.11975586 -164.55958984 123.05982422 -164.67480469 121.96777344 C-165.84373708 111.29994903 -167.02980701 103.59712012 -175 96 C-181.95398407 87.82659693 -186.02950798 79.28088 -186.4375 68.5 C-186.49808594 67.3759375 -186.55867187 66.251875 -186.62109375 65.09375 C-186 62 -186 62 -183.13671875 60.0703125 C-181.58404297 59.04550781 -181.58404297 59.04550781 -180 58 C-178.84745065 55.34972154 -178.06583801 53.1325602 -177.375 50.375 C-176.96462481 48.93161138 -176.55186639 47.48889821 -176.13671875 46.046875 C-175.94255371 45.35013672 -175.74838867 44.65339844 -175.54833984 43.93554688 C-172.20455626 32.13255656 -166.00889857 23.23481972 -155.65234375 16.46875 C-135.52054725 5.32065651 -109.46697866 8.46049402 -88.20751953 14.41455078 C-69.700621 19.32270635 -43.72100088 19.83752952 -25.80371094 12.69799805 C-23.67593381 11.87459323 -21.52983106 11.34195248 -19.3125 10.8125 C-12.79754621 8.93513793 -4.84635747 4.84635747 0 0 Z " fill="#FEFEFE" transform="translate(936,188)"/>
<path d="M0 0 C4.42279168 0.87896439 7.12647362 3.34417622 10.5 6.1875 C35.7515462 26.88548869 63.66754743 43.94862442 94 56 C94.99386719 56.39960938 95.98773438 56.79921875 97.01171875 57.2109375 C99.65392114 58.22250044 102.30829559 59.12861147 105 60 C106.15628906 60.38671875 107.31257812 60.7734375 108.50390625 61.171875 C129.91759325 67.92261275 153.61987404 70.70087316 176 71 C175.47176131 81.82037309 172.79816059 91.77617479 169.5625 102.0625 C169.36359161 102.69787689 169.16468323 103.33325378 168.95974731 103.98788452 C166.91813585 110.47240703 164.76719859 116.79206181 162 123 C161.35177776 124.90893793 160.7257155 126.82558398 160.125 128.75 C158.47218367 133.80938433 156.46723154 138.56488449 154.20703125 143.37890625 C153.11481034 145.75068693 152.13180463 148.12893962 151.1875 150.5625 C144.0895655 168.52112945 136.27720697 185.95800469 124 201 C123.30318115 201.85706543 123.30318115 201.85706543 122.59228516 202.73144531 C108.15010321 220.38247125 87.48272451 240.01282554 63.72802734 243.31591797 C61.4131659 243.47170202 59.13243476 243.51926256 56.8125 243.5 C55.57367065 243.49033203 55.57367065 243.49033203 54.30981445 243.48046875 C32.1939835 242.82931014 11.59608873 226.56989728 -3.15234375 211.1328125 C-25.04145008 187.4709185 -36.69243129 156.68564082 -48 127 C-48.25128662 126.34384705 -48.50257324 125.68769409 -48.76147461 125.01165771 C-50.49686924 120.47714604 -52.19515223 115.93039376 -53.875 111.375 C-54.32246582 110.1893042 -54.76993164 109.0036084 -55.23095703 107.78198242 C-55.82432861 106.13806519 -55.82432861 106.13806519 -56.4296875 104.4609375 C-56.78272949 103.49978027 -57.13577148 102.53862305 -57.49951172 101.54833984 C-58 99 -58 99 -57.234375 96.80981445 C-55.45822438 94.20566007 -53.32272575 92.07074283 -51.125 89.8125 C-32.89191705 70.46986799 -19.36217444 45.13518875 -8.87939453 20.91625977 C-8 19 -8 19 -6.41796875 16.39453125 C-4.57941513 13.28975613 -3.49053297 10.09424398 -2.3125 6.6875 C-2.08755859 6.04232422 -1.86261719 5.39714844 -1.63085938 4.73242188 C-1.08226467 3.15667113 -0.54043041 1.57856946 0 0 Z " fill="#FEFEFE" transform="translate(276,160)"/>
<path d="M0 0 C1.00650604 -0.01667221 2.01301208 -0.03334442 3.05001831 -0.05052185 C6.28221206 -0.09262676 9.51364471 -0.11174665 12.74609375 -0.12109375 C13.8469632 -0.12471924 14.94783264 -0.12834473 16.08206177 -0.13208008 C32.85931904 -0.12595917 47.53510551 0.92742735 63.18359375 7.44140625 C64.84469585 8.0738531 66.5061495 8.70537744 68.16796875 9.3359375 C78.90375115 13.59939862 91.35842462 19.59897091 98.12109375 29.31640625 C101.19356453 33.36905175 105.46426705 33.80839525 110.23095703 34.89306641 C121.47324782 37.53685787 130.59533738 43.92668193 139.18359375 51.44140625 C140.03953125 52.18777344 140.89546875 52.93414062 141.77734375 53.703125 C144.27554272 55.91914788 146.73462596 58.17122558 149.18359375 60.44140625 C149.78816406 60.98023438 150.39273437 61.5190625 151.015625 62.07421875 C161.45753964 71.80696354 168.61472433 84.93130521 175.18359375 97.44140625 C175.67375977 98.34874512 175.67375977 98.34874512 176.17382812 99.27441406 C181.64089484 109.49328216 185.34228789 120.29052052 188.99609375 131.25390625 C189.23301941 131.96328339 189.46994507 132.67266052 189.71405029 133.40353394 C193.56824925 145.00687607 196.91878339 156.5814204 198.74609375 168.69140625 C199.40469651 172.99678659 200.08988281 177.24189451 201.18359375 181.4609375 C203.22005944 189.32344916 204.15400251 197.39701754 205.18359375 205.44140625 C205.31942871 206.48151855 205.45526367 207.52163086 205.59521484 208.59326172 C207.45994561 223.56627741 208.26765418 238.39338001 208.34765625 253.48046875 C208.35723432 254.8377191 208.3670115 256.19496806 208.37698364 257.55221558 C208.42257097 264.3263566 208.42515422 271.09635359 208.36572266 277.87060547 C208.34523069 293.93882838 210.36916101 307.7388907 215.42219543 322.99290466 C222.39773602 345.42481953 217.01702885 367.86164348 210.18359375 389.44140625 C209.85359375 390.51132812 209.52359375 391.58125 209.18359375 392.68359375 C204.11674075 407.9293925 194.32273903 421.51139751 183.12109375 432.81640625 C182.54343262 433.39970703 181.96577148 433.98300781 181.37060547 434.58398438 C171.34548236 444.44140625 171.34548236 444.44140625 166.18359375 444.44140625 C164.43399103 442.04909232 162.92503071 439.73672927 161.43359375 437.19140625 C161.00949219 436.50949219 160.58539063 435.82757813 160.1484375 435.125 C159.55482422 434.12919922 159.55482422 434.12919922 158.94921875 433.11328125 C158.58602539 432.50581055 158.22283203 431.89833984 157.84863281 431.27246094 C156.99735298 428.92862881 157.29708575 427.74307932 158.18359375 425.44140625 C159.93359375 423.87109375 159.93359375 423.87109375 162.18359375 422.31640625 C176.63831819 411.50399748 184.78832461 395.91275975 191.18359375 379.44140625 C191.44333984 378.80315918 191.70308594 378.16491211 191.97070312 377.50732422 C199.15486241 359.41303099 198.01500041 340.44228083 192.37948608 322.13217163 C185.86921705 300.89937853 186.20069434 279.65399203 186.27006531 257.65757751 C186.33245274 236.68935819 184.62459893 216.21757927 181.43359375 195.50390625 C181.30320709 194.64809967 181.17282043 193.79229309 181.03848267 192.91055298 C175.45876978 156.54621729 166.29417139 116.04769118 143.18359375 86.44140625 C142.58345459 85.66265137 142.58345459 85.66265137 141.97119141 84.86816406 C130.26431995 69.83092744 116.47501586 59.33186422 98.18359375 53.44140625 C97.50425781 53.38855469 96.82492187 53.33570313 96.125 53.28125 C90.06251891 52.68688911 87.37240918 49.8179176 83.55859375 45.31640625 C70.15448926 29.53302964 45.16454278 22.56296551 25.24853516 20.07470703 C12.46292175 19.17695001 -0.28293899 21.05335791 -12.81640625 23.44140625 C-13.61771973 23.59125977 -14.4190332 23.74111328 -15.24462891 23.89550781 C-24.9230424 25.74744068 -33.92043601 28.08109495 -42.81640625 32.44140625 C-43.97269531 32.99441406 -45.12898437 33.54742187 -46.3203125 34.1171875 C-61.28999958 41.53301905 -73.7556108 52.02144326 -85.81640625 63.44140625 C-86.8316403 64.36009161 -87.84991228 65.27543018 -88.87109375 66.1875 C-108.81897702 84.02411095 -122.9204428 104.8664825 -131.1328125 130.32714844 C-131.80139966 132.394993 -132.49432343 134.45333276 -133.19140625 136.51171875 C-135.98239333 144.89901901 -137.9226414 153.27142974 -139.38330078 161.99169922 C-139.86671873 164.7259809 -140.41545662 167.44307178 -140.96875 170.1640625 C-147.39429546 202.59376076 -149.68513304 235.99149093 -149.86198425 269.0116272 C-150.00565808 292.59304877 -151.32088347 315.03634298 -156.16796875 338.14794922 C-160.91597892 362.26340751 -155.12026033 381.58122563 -141.79296875 401.78515625 C-135.1369663 410.72998167 -127.11205061 419.24431001 -117.81640625 425.44140625 C-119.16902997 430.18270834 -121.14994979 433.76429204 -123.94140625 437.81640625 C-124.66585937 438.87601562 -125.3903125 439.935625 -126.13671875 441.02734375 C-126.69101563 441.82398438 -127.2453125 442.620625 -127.81640625 443.44140625 C-147.89030247 436.43888431 -163.12989185 411.2079915 -171.94824219 393.26269531 C-184.28603702 367.37969491 -180.4033916 339.04721179 -173.9987793 311.98681641 C-170.96820187 298.55933441 -171.32544426 284.93231689 -171.26342773 271.23400879 C-171.16706606 250.56195794 -170.63794655 230.04260421 -168.81640625 209.44140625 C-168.74342316 208.61493591 -168.67044006 207.78846558 -168.59524536 206.93695068 C-168.17898954 202.36640339 -167.68252538 197.81019779 -167.12890625 193.25390625 C-167.04848083 192.58870972 -166.96805542 191.92351318 -166.88519287 191.23815918 C-163.55232999 164.15221151 -158.38217409 135.27379014 -146.81640625 110.44140625 C-146.16222614 108.96898726 -145.50863071 107.49630842 -144.85546875 106.0234375 C-135.816609 85.96726383 -123.5744003 69.81858026 -107.94140625 54.31640625 C-107.02488281 53.39214844 -106.10835938 52.46789063 -105.1640625 51.515625 C-99.02497437 45.39380575 -92.61042797 39.82147823 -85.81640625 34.44140625 C-84.69696199 33.52590569 -83.57828896 32.60945986 -82.4609375 31.69140625 C-74.39772655 25.28532417 -65.94863134 20.1821419 -56.81640625 15.44140625 C-56.21103027 15.12042969 -55.6056543 14.79945312 -54.98193359 14.46875 C-38.30381973 5.71537264 -18.85090985 0.23959345 0 0 Z " fill="#508990" transform="translate(313.81640625,-0.44140625)"/>
<path d="M0 0 C2.48551733 0.01074396 4.97031462 0.00002698 7.45581055 -0.01269531 C16.62407176 -0.02113004 25.3983447 0.4589627 34.42260742 2.26074219 C35.17276123 2.40672852 35.92291504 2.55271484 36.69580078 2.703125 C50.72670952 5.62245648 64.6888829 9.86850331 74.09838867 21.29589844 C77.39257159 24.0807287 80.88929568 24.89034541 84.98510742 26.07324219 C99.29670955 30.54579693 110.59386986 38.23177569 118.10620117 51.47558594 C129.67178687 75.9452079 125.40708011 108.18800551 117.42260742 133.26074219 C116.76260742 133.26074219 116.10260742 133.26074219 115.42260742 133.26074219 C114.40019925 131.76080205 113.45747124 130.20650211 112.54760742 128.63574219 C106.25459506 118.50711279 98.26577257 109.7410334 89.61010742 101.57324219 C89.09561035 101.08025635 88.58111328 100.58727051 88.05102539 100.0793457 C83.49390131 95.91160077 79.12129871 93.6532791 72.98510742 92.76074219 C68.29256165 93.4193451 65.04174525 95.23857555 61.42260742 98.26074219 C60.54282227 99.47310547 60.54282227 99.47310547 59.64526367 100.70996094 C56.87853756 103.88513167 53.8589232 105.30844241 50.04760742 106.88574219 C49.33282227 107.18424072 48.61803711 107.48273926 47.8815918 107.7902832 C24.7667759 117.11978798 -0.98976114 114.11567304 -24.75830078 108.66992188 C-46.70717942 103.72302446 -72.87290437 103.94055582 -92.84692383 115.08496094 C-99.25594691 119.18834804 -107.07020494 124.2463669 -110.57739258 131.26074219 C-111.23739258 131.26074219 -111.89739258 131.26074219 -112.57739258 131.26074219 C-112.67819448 125.78797453 -112.74974601 120.31577653 -112.79711914 114.84228516 C-112.81691963 112.99030112 -112.84396736 111.13837677 -112.87915039 109.28662109 C-113.45111384 78.35012733 -105.4732823 51.0597775 -83.95239258 28.19824219 C-71.61683592 16.20116117 -55.82192125 9.11822785 -39.45239258 4.44824219 C-38.77337891 4.25327148 -38.09436523 4.05830078 -37.39477539 3.85742188 C-25.0173923 0.55484483 -12.72742403 -0.06531393 0 0 Z " fill="#FDFEFE" transform="translate(863.577392578125,71.7392578125)"/>
<path d="M0 0 C5.9535223 0.78654258 11.26784629 3.60813483 16.69921875 6.02929688 C31.12259309 12.29481069 46.78227554 13.21419358 61.62890625 7.63671875 C64.2352285 6.60578943 66.82624299 5.54124925 69.4140625 4.46484375 C73.56124365 2.7707338 77.73014161 1.34837633 82 0 C82.43570313 0.79664063 82.87140625 1.59328125 83.3203125 2.4140625 C86.69466543 8.41778134 89.81354335 13.44603806 95 18 C92.83404427 26.54501524 90.10193463 34.87097556 87.27404785 43.21310425 C70.41755637 93.01498496 56.23906331 143.39292927 45.74951172 194.94360352 C45.54213379 195.95350342 45.33475586 196.96340332 45.12109375 198.00390625 C44.9502124 198.85799072 44.77933105 199.7120752 44.60327148 200.59204102 C43.95527011 203.17853944 43.04206429 205.54845415 42 208 C41.67 208 41.34 208 41 208 C40.7980603 207.02619385 40.7980603 207.02619385 40.59204102 206.03271484 C37.3962038 190.69959466 33.98287664 175.42860453 30.375 160.1875 C30.18745148 159.39228943 29.99990295 158.59707886 29.80667114 157.777771 C26.27650571 142.83095369 22.34689925 128.01774041 18.125 113.25 C17.77912842 112.03916748 17.43325684 110.82833496 17.0769043 109.58081055 C14.85880125 101.86431123 12.54275651 94.18857142 10.08300781 86.54589844 C8.42433463 81.38785713 6.87624294 76.20588588 5.375 71 C3.77472991 65.46715128 1.99316574 60.04962553 -0.0390625 54.66015625 C-1.49713145 50.62379464 -2.69031708 46.51242396 -3.921875 42.40234375 C-5.06264899 38.8022925 -6.362859 35.28618243 -7.6875 31.75 C-11.85626243 19.8991785 -11.85626243 19.8991785 -11 16 C-9.21400181 13.19465512 -7.22900612 10.78897364 -5.015625 8.30859375 C-2.69481477 5.65045646 -1.35822015 3.22577285 0 0 Z " fill="#FDFEFE" transform="translate(291,413)"/>
<path d="M0 0 C0.83128418 0.27730957 1.66256836 0.55461914 2.51904297 0.84033203 C4.92204074 1.64088186 7.33915064 2.39985271 9.76611328 3.12451172 C13.8713041 4.52930276 17.774164 6.02035516 21 9 C23.40929741 14.63066714 23.64409591 20.06471393 23.875 26.125 C23.98425639 27.6892792 24.10008992 29.25311361 24.22265625 30.81640625 C24.44205437 33.68456728 24.61932226 36.5492215 24.75732422 39.42236328 C24.95901278 42.39574783 25.36189221 45.10001347 26 48 C26.06371368 49.60303627 26.08644214 51.20837672 26.0625 52.8125 C26.05347656 53.60269531 26.04445313 54.39289063 26.03515625 55.20703125 C26.02355469 55.79871094 26.01195312 56.39039063 26 57 C19.38888256 60.05969071 12.58655516 61.87691862 5.5625 63.75 C-2.26715864 65.74553796 -2.26715864 65.74553796 -8.375 70.75 C-9.60542303 75.17952291 -8.85275605 78.35500607 -6.7890625 82.3359375 C-2.77819675 88.85114869 1.87202293 94.90629935 6.49829102 100.98999023 C10.9274642 106.83185055 15.02995549 112.83475441 19 119 C15.00743934 123.99070083 10.63288218 128.24245596 5.88891602 132.52197266 C-2.33518858 139.97550098 -10.27233363 147.77875732 -17.4609375 156.2421875 C-19.0694055 158.07927024 -20.75838868 159.78907787 -22.5 161.5 C-25.53594925 164.48872337 -28.34508659 167.61706479 -31.125 170.84375 C-33.17359094 173.19962958 -35.27203002 175.5050746 -37.375 177.8125 C-42.11220452 183.05522376 -46.57227877 188.49413388 -51 194 C-52.44031588 191.11936824 -51.67629179 189.14160799 -51.125 186 C-50.94195312 184.9275 -50.75890625 183.855 -50.5703125 182.75 C-50 180 -50 180 -49 178 C-48.68881155 176.30339617 -48.41378294 174.60010435 -48.15625 172.89453125 C-46.89519347 165.09290302 -45.22159469 157.39715499 -43.5 149.6875 C-43.32704407 148.91234039 -43.15408813 148.13718079 -42.97589111 147.33853149 C-31.83151468 97.59706571 -18.3661346 47.60452949 0 0 Z " fill="#FBFCFC" transform="translate(403,446)"/>
<path d="M0 0 C10.83969985 33.04344445 21.28422051 66.11935322 30.37554932 99.69500732 C30.95116783 101.81974912 31.53037007 103.94347399 32.11083984 106.06689453 C36.49836471 122.19325619 40.15450543 138.45032671 43.65568542 154.78604126 C45.35772076 162.70384259 47.14648136 170.60193911 48.9375 178.5 C49.2473999 179.86816314 49.55729585 181.23632718 49.8671875 182.60449219 C50.5771948 185.73654051 51.28806235 188.86839 52 192 C51.34 192.33 50.68 192.66 50 193 C49.56171875 192.44054687 49.1234375 191.88109375 48.671875 191.3046875 C35.02397373 174.05063346 20.14625294 158.0711605 4.625 142.5 C3.69768066 141.56800781 2.77036133 140.63601563 1.81494141 139.67578125 C-4.81902463 133.05733466 -11.6121765 126.77173711 -19 121 C-17.50442987 116.55483324 -15.05721243 113.13017545 -12.25 109.4375 C-11.26836178 108.11154207 -10.28795945 106.78466857 -9.30859375 105.45703125 C-7.58488431 103.12978651 -5.85524105 100.80765009 -4.11376953 98.49365234 C-2.15922745 95.88547935 -0.2344516 93.25724874 1.6875 90.625 C2.31172852 89.80572021 2.93595703 88.98644043 3.57910156 88.14233398 C6.99444478 83.41446309 8.7014413 79.89542173 8.71020508 74.02099609 C7.60725141 70.88237441 5.74882663 69.80042558 3 68 C-0.25768568 66.65493029 -0.25768568 66.65493029 -3.83203125 65.640625 C-4.7869471 65.34946808 -4.7869471 65.34946808 -5.76115417 65.0524292 C-7.77523566 64.44096437 -9.79358504 63.84528709 -11.8125 63.25 C-13.18716236 62.83567382 -14.56151518 62.42031914 -15.93554688 62.00390625 C-19.28686854 60.99068898 -22.64219963 59.99156521 -26 59 C-26.38104921 49.65106355 -25.42539236 40.47488333 -24.30322266 31.20947266 C-24.10001748 29.47748396 -23.91233771 27.74360748 -23.73974609 26.00830078 C-22.30029784 11.58399919 -22.30029784 11.58399919 -19.21411133 7.82446289 C-17.1614858 6.5224731 -15.31028404 5.73174894 -13 5 C-12.05511719 4.47792969 -11.11023438 3.95585937 -10.13671875 3.41796875 C-9.32847656 3.01191406 -8.52023438 2.60585938 -7.6875 2.1875 C-6.45580078 1.55908203 -6.45580078 1.55908203 -5.19921875 0.91796875 C-3 0 -3 0 0 0 Z " fill="#FCFDFD" transform="translate(263,445)"/>
<path d="M0 0 C1.29574871 2.22687976 2.58667308 4.45633175 3.875 6.6875 C4.42220703 7.62625977 4.42220703 7.62625977 4.98046875 8.58398438 C6.93741197 11.98194942 8.65607739 15.30067619 10 19 C4.57485859 22.50960643 -0.95040047 25.63267864 -6.71484375 28.546875 C-7.52885147 28.9623761 -8.34285919 29.3778772 -9.18153381 29.80596924 C-11.76512916 31.12406872 -14.35115044 32.43731429 -16.9375 33.75 C-19.48144684 35.04419925 -22.02483127 36.33947883 -24.56729126 37.63659668 C-26.24372031 38.49076242 -27.92159285 39.34210122 -29.60092163 40.19055176 C-33.72856443 42.28477364 -37.80687141 44.4319113 -41.83251953 46.71679688 C-42.5993959 47.14551086 -43.36627228 47.57422485 -44.15638733 48.01593018 C-45.5969822 48.8259588 -47.02863027 49.6521941 -48.44895935 50.49725342 C-51.67819053 52.3001998 -53.44915847 53.10418779 -57.13916016 52.40625 C-58.0832373 51.9421875 -59.02731445 51.478125 -60 51 C-60.88147705 50.57428711 -61.7629541 50.14857422 -62.67114258 49.70996094 C-63.56986084 49.22301758 -64.4685791 48.73607422 -65.39453125 48.234375 C-66.93379272 47.40377563 -66.93379272 47.40377563 -68.50415039 46.55639648 C-69.59590576 45.96028564 -70.68766113 45.3641748 -71.8125 44.75 C-72.94872803 44.13390869 -74.08495605 43.51781738 -75.25561523 42.88305664 C-86.340641 36.86196324 -97.34331823 30.69342518 -108.33251953 24.49951172 C-112.21332673 22.31793403 -116.10520807 20.1564899 -120 18 C-118.17935178 14.27369275 -116.06363457 10.76882943 -113.875 7.25 C-113.50246094 6.64800781 -113.12992188 6.04601562 -112.74609375 5.42578125 C-111.83225276 3.94957657 -110.91633402 2.47465846 -110 1 C-106.4133103 2.33729348 -103.07039921 3.9772533 -99.68945312 5.76757812 C-96.17024491 7.60443314 -92.59265637 9.31232573 -89 11 C-87.85144531 11.54011719 -86.70289063 12.08023437 -85.51953125 12.63671875 C-76.16981274 16.25830783 -66.84937281 16.49744798 -56.9375 16.5625 C-55.92586792 16.57591431 -55.92586792 16.57591431 -54.89379883 16.58959961 C-36.3397972 16.75419338 -20.12575648 11.03540655 -4.3984375 1.35546875 C-2 0 -2 0 0 0 Z " fill="#FBFCFC" transform="translate(920,403)"/>
<path d="M0 0 C6.54053804 4.368976 9.55022548 9.65067643 12 17 C12.91486786 25.17381943 11.42065122 32.36528346 6.4921875 39.04296875 C1.64906366 44.32535266 -3.83709302 47.52237834 -10.99609375 48.34375 C-20.14874935 48.61798687 -26.46658578 46.3009081 -33.19921875 40.078125 C-38.03386822 34.49887659 -39.66310752 27.7828794 -39.3203125 20.515625 C-38.36893464 13.04382815 -36.42453161 7.29837971 -31 2 C-21.25260112 -5.46609276 -10.53626815 -6.30609358 0 0 Z " fill="#FCFDFD" transform="translate(553,585)"/>
<path d="M0 0 C6.30004389 3.48010187 10.45832653 7.2961988 13.1171875 14.203125 C14.92119398 21.91872196 14.32316416 29.95613135 11.0234375 37.15234375 C7.35685844 42.97995125 1.89613172 46.73371053 -4.375 49.375 C-11.18303573 50.25167281 -18.52617202 50.48636171 -24.5625 46.84375 C-29.70273603 42.67838632 -34.46349579 37.81816784 -36.375 31.375 C-37.18953759 23.31536486 -37.64121746 15.1633745 -32.92578125 8.203125 C-24.04041313 -2.27131399 -12.77624488 -5.98739151 0 0 Z " fill="#FDFDFD" transform="translate(753.375,583.625)"/>
<path d="M0 0 C2.86890542 1.36850837 5.68360997 2.7993855 8.48657227 4.29882812 C10.18221313 5.2052002 10.18221313 5.2052002 11.91210938 6.12988281 C13.12717356 6.78359578 14.34209566 7.43757288 15.55688477 8.09179688 C16.17193878 8.42199829 16.7869928 8.75219971 17.42068481 9.09240723 C31.31130364 16.55250476 45.21647488 24.07073803 58.68188477 32.27929688 C57.34561589 35.28773626 55.91868333 37.24368033 53.48657227 39.45117188 C52.8564624 40.0297998 52.22635254 40.60842773 51.57714844 41.20458984 C50.91046143 41.80674316 50.24377441 42.40889648 49.55688477 43.02929688 C48.19507004 44.27545062 46.83438418 45.52283916 45.47485352 46.77148438 C44.82049316 47.37186523 44.16613281 47.97224609 43.49194336 48.59082031 C40.58874241 51.29901262 37.83018456 54.14047281 35.09985352 57.02148438 C33.68188477 58.27929688 33.68188477 58.27929688 31.68188477 58.27929688 C30.21899414 56.81054688 30.21899414 56.81054688 28.52563477 54.77929688 C24.87131868 50.48321041 21.06138726 46.37182584 17.18188477 42.27929688 C15.77944498 40.79371044 14.37710377 39.30803095 12.97485352 37.82226562 C12.26635254 37.07251465 11.55785156 36.32276367 10.82788086 35.55029297 C7.37952542 31.90107769 3.93478649 28.24851128 0.49438477 24.59179688 C-0.11663086 23.94533203 -0.72764648 23.29886719 -1.35717773 22.6328125 C-4.03732165 19.78254809 -6.64767352 16.91898352 -9.11889648 13.88476562 C-11.05023331 11.24864114 -11.05023331 11.24864114 -13.31811523 10.27929688 C-13.31811523 9.28929687 -13.31811523 8.29929687 -13.31811523 7.27929688 C-11.08764648 5.16601562 -11.08764648 5.16601562 -8.13061523 2.96679688 C-7.16768555 2.22816406 -6.20475586 1.48953125 -5.21264648 0.72851562 C-2.31811523 -0.72070312 -2.31811523 -0.72070312 0 0 Z " fill="#FCFDFD" transform="translate(788.318115234375,437.720703125)"/>
<path d="M0 0 C2.33986549 1.05293947 4.18366196 2.35949354 6.203125 3.94140625 C6.90953125 4.48925781 7.6159375 5.03710938 8.34375 5.6015625 C8.87484375 6.02308594 9.4059375 6.44460938 9.953125 6.87890625 C9.48604613 11.22477053 6.88653249 13.21216886 3.828125 16.12890625 C2.81836893 17.10606851 1.81055745 18.08524416 0.8046875 19.06640625 C0.31387695 19.54464844 -0.17693359 20.02289063 -0.68261719 20.515625 C-3.07519839 22.90649354 -5.24303934 25.48012733 -7.4375 28.05078125 C-9.07273934 29.90828613 -10.78169293 31.64496634 -12.546875 33.37890625 C-14.8813184 35.67727658 -17.092601 38.02504918 -19.234375 40.50390625 C-22.55779565 44.34329175 -25.94133503 48.12379049 -29.359375 51.87890625 C-29.88748779 52.46752441 -30.41560059 53.05614258 -30.9597168 53.66259766 C-32.28091962 55.1068171 -33.6596425 56.49798892 -35.046875 57.87890625 C-37.046875 57.87890625 -37.046875 57.87890625 -39.36791992 55.68286133 C-40.2519751 54.75755615 -41.13603027 53.83225098 -42.046875 52.87890625 C-42.84005127 52.08572998 -43.63322754 51.29255371 -44.45043945 50.4753418 C-50.31591797 44.60986328 -56.18139648 38.74438477 -62.046875 32.87890625 C-58.97433154 30.44269106 -55.79755271 28.57050775 -52.33984375 26.7265625 C-51.20619385 26.12038086 -50.07254395 25.51419922 -48.90454102 24.88964844 C-47.68121307 24.24011999 -46.45782306 23.59070843 -45.234375 22.94140625 C-43.98028579 22.27265139 -42.72629918 21.60370409 -41.47241211 20.93457031 C-32.42710617 16.11425864 -23.35055611 11.35402183 -14.24487305 6.64868164 C-13.36613525 6.19356201 -12.48739746 5.73844238 -11.58203125 5.26953125 C-10.77910645 4.85509766 -9.97618164 4.44066406 -9.14892578 4.01367188 C-6.87453029 2.8247638 -6.87453029 2.8247638 -4.16796875 0.98828125 C-2.046875 -0.12109375 -2.046875 -0.12109375 0 0 Z " fill="#FBFCFC" transform="translate(945.046875,438.12109375)"/>
<path d="M0 0 C5.11377135 2.38723449 10.23742313 5.090353 13.36279297 9.97021484 C15.78959936 17.70066248 10.49495466 30.01009069 7 37 C3.04 37 -0.92 37 -5 37 C-6.00817748 33.6064026 -7.00678016 30.21047507 -8 26.8125 C-8.28617188 25.85279297 -8.57234375 24.89308594 -8.8671875 23.90429688 C-9.13789062 22.97294922 -9.40859375 22.04160156 -9.6875 21.08203125 C-10.06455078 19.80162964 -10.06455078 19.80162964 -10.44921875 18.49536133 C-11.03159742 15.85684518 -11.26465593 13.69103926 -11 11 C-9.21336981 8.8508231 -7.53604497 7.06096153 -5.5 5.1875 C-4.97535156 4.68541016 -4.45070313 4.18332031 -3.91015625 3.66601562 C-2.61777468 2.43237867 -1.31030401 1.21458375 0 0 Z " fill="#FBFCFD" transform="translate(864,483)"/>
<path d="M0 0 C0.33 0 0.66 0 1 0 C1 10.23 1 20.46 1 31 C1.66 31 2.32 31 3 31 C3.3403125 30.13375 3.3403125 30.13375 3.6875 29.25 C5.33038023 26.4336339 7.39533227 24.91922886 10 23 C9.52697634 27.25721298 7.18981069 29.32946082 4 32 C2.68 32 1.36 32 0 32 C0 21.44 0 10.88 0 0 Z " fill="#7BA6AB" transform="translate(750,172)"/>
<path d="M0 0 C1.00000429 4.00001715 0.80688405 6.05523353 0 10 C-0.99 10.33 -1.98 10.66 -3 11 C-2.01 7.37 -1.02 3.74 0 0 Z " fill="#7FA9AE" transform="translate(448,251)"/>
</svg>
